# xmcd
#
# Track frame offsets: 
#        150
#        12748
#        31064
#        48480
#        69815
#        97788
#        115523
#        134084
#        150807
#        168130
#        194190
#
# Disc length: 2888 seconds
#
# Revision: 0
# Processed by: cddbd v1.5.2PL0 Copyright (c) Steve Scherf et al.
# Submitted via: ExactAudioCopy v0.90b4
#
DISCID=830b460b
DTITLE=Clan an Drumma - Raw
DYEAR=2013
DGENRE=Celtic
TTITLE0=New jigs
TTITLE1=Fingers
TTITLE2=When the clans unite
TTITLE3=Child of the drum
TTITLE4=Stormhags
TTITLE5=Thibal king
TTITLE6=Come wi'me
TTITLE7=Coihn duhb jigs
TTITLE8=Lexy macaskill
TTITLE9=Bizzy lizzy
TTITLE10=The gael
EXTD=
EXTT0=
EXTT1=
EXTT2=
EXTT3=
EXTT4=
EXTT5=
EXTT6=
EXTT7=
EXTT8=
EXTT9=
EXTT10=
PLAYORDER=
